<svg width="24" height="20" viewBox="0 0 24 20" fill="none" xmlns="http://www.w3.org/2000/svg">
<path d="M3 16.875C2.33737 16.875 1.8 16.3152 1.8 15.625V3.75C0.805875 3.75 0 4.58984 0 5.625V16.25C0 17.6305 1.07437 18.75 2.4 18.75H18.6C19.5941 18.75 20.4 17.9105 20.4 16.875H3Z" fill="black"/>
<path opacity="0.4" d="M23.7187 6.25V3.125C23.7187 2.08984 22.9125 1.25 21.9187 1.25H5.11873C4.12498 1.25 3.31873 2.08984 3.31873 3.125V13.125C3.31873 14.1602 4.12498 15 5.11873 15H21.9187C22.9125 15 23.7187 14.1602 23.7187 13.125V10C22.725 10 21.9187 9.16016 21.9187 8.125C21.9187 7.08984 22.725 6.25 23.7187 6.25ZM19.5187 12.5C19.1887 12.5 18.9187 12.2188 18.9187 11.875C18.9187 11.5312 19.1887 11.25 19.5187 11.25C19.8487 11.25 20.1187 11.5312 20.1187 11.875C20.1187 12.2188 19.8487 12.5 19.5187 12.5ZM19.5187 10C19.1887 10 18.9187 9.71875 18.9187 9.375C18.9187 9.03125 19.1887 8.75 19.5187 8.75C19.8487 8.75 20.1187 9.03125 20.1187 9.375C20.1187 9.71875 19.8487 10 19.5187 10ZM19.5187 7.5C19.1887 7.5 18.9187 7.21875 18.9187 6.875C18.9187 6.53125 19.1887 6.25 19.5187 6.25C19.8487 6.25 20.1187 6.53125 20.1187 6.875C20.1187 7.21875 19.8487 7.5 19.5187 7.5ZM19.5187 5C19.1887 5 18.9187 4.71875 18.9187 4.375C18.9187 4.03125 19.1887 3.75 19.5187 3.75C19.8487 3.75 20.1187 4.03125 20.1187 4.375C20.1187 4.71875 19.8487 5 19.5187 5Z" fill="black"/>
</svg>
